<svg xmlns="http://www.w3.org/2000/svg" width="40" height="40" viewBox="0 0 40 40" fill="none"><g clip-path="url(#clip0)"><path d="M32.0064 15.9376L31.4939 16.8313C31.3064 17.1626 30.9064 17.3001 30.5501 17.1688C29.8126 16.8938 29.1376 16.5001 28.5439 16.0063C28.2564 15.7688 28.1814 15.3501 28.3689 15.0251L28.8814 14.1313C28.4501 13.6313 28.1126 13.0501 27.8876 12.4188H26.8564C26.4814 12.4188 26.1564 12.1501 26.0939 11.7751C25.9689 11.0251 25.9626 10.2376 26.0939 9.45631C26.1564 9.08131 26.4814 8.80631 26.8564 8.80631H27.8876C28.1126 8.17506 28.4501 7.59381 28.8814 7.09381L28.3689 6.20006C28.1814 5.87506 28.2501 5.45631 28.5439 5.21881C29.1376 4.72506 29.8189 4.33131 30.5501 4.05631C30.9064 3.92506 31.3064 4.06256 31.4939 4.39381L32.0064 5.28756C32.6626 5.16881 33.3314 5.16881 33.9876 5.28756L34.5001 4.39381C34.6876 4.06256 35.0876 3.92506 35.4439 4.05631C36.1814 4.33131 36.8564 4.72506 37.4501 5.21881C37.7376 5.45631 37.8126 5.87506 37.6251 6.20006L37.1126 7.09381C37.5439 7.59381 37.8814 8.17506 38.1064 8.80631H39.1376C39.5126 8.80631 39.8376 9.07506 39.9001 9.45006C40.0251 10.2001 40.0314 10.9876 39.9001 11.7688C39.8376 12.1438 39.5126 12.4188 39.1376 12.4188H38.1064C37.8814 13.0501 37.5439 13.6313 37.1126 14.1313L37.6251 15.0251C37.8126 15.3501 37.7439 15.7688 37.4501 16.0063C36.8564 16.5001 36.1751 16.8938 35.4439 17.1688C35.0876 17.3001 34.6876 17.1626 34.5001 16.8313L33.9876 15.9376C33.3376 16.0563 32.6626 16.0563 32.0064 15.9376ZM31.3501 12.2626C33.7564 14.1126 36.5001 11.3688 34.6501 8.96256C32.2439 7.10631 29.5001 9.85631 31.3501 12.2626ZM24.1439 21.8813L26.2501 22.9313C26.8814 23.2938 27.1564 24.0626 26.9064 24.7501C26.3501 26.2626 25.2564 27.6501 24.2439 28.8626C23.7814 29.4188 22.9814 29.5563 22.3501 29.1938L20.5314 28.1438C19.5314 29.0001 18.3689 29.6813 17.1001 30.1251V32.2251C17.1001 32.9501 16.5814 33.5751 15.8688 33.7001C14.3313 33.9626 12.7189 33.9751 11.1251 33.7001C10.4063 33.5751 9.8751 32.9563 9.8751 32.2251V30.1251C8.60635 29.6751 7.44385 29.0001 6.44385 28.1438L4.6251 29.1876C4.0001 29.5501 3.19385 29.4126 2.73135 28.8563C1.71885 27.6438 0.650099 26.2563 0.0938486 24.7501C-0.156151 24.0688 0.118849 23.3001 0.750099 22.9313L2.83135 21.8813C2.5876 20.5751 2.5876 19.2313 2.83135 17.9188L0.750099 16.8626C0.118849 16.5001 -0.162401 15.7313 0.0938486 15.0501C0.650099 13.5376 1.71885 12.1501 2.73135 10.9376C3.19385 10.3813 3.99385 10.2438 4.6251 10.6063L6.44385 11.6563C7.44385 10.8001 8.60635 10.1188 9.8751 9.67506V7.56881C9.8751 6.85006 10.3876 6.22506 11.1001 6.10006C12.6376 5.83756 14.2564 5.82506 15.8501 6.09381C16.5689 6.21881 17.1001 6.83756 17.1001 7.56881V9.66881C18.3689 10.1188 19.5314 10.7938 20.5314 11.6501L22.3501 10.6001C22.9751 10.2376 23.7814 10.3751 24.2439 10.9313C25.2564 12.1438 26.3189 13.5313 26.8751 15.0438C27.1251 15.7251 26.8814 16.4938 26.2501 16.8626L24.1439 17.9126C24.3876 19.2251 24.3876 20.5688 24.1439 21.8813ZM16.7939 23.2001C20.4939 18.3876 15.0001 12.8938 10.1876 16.5938C6.4876 21.4063 11.9814 26.9001 16.7939 23.2001ZM32.0064 34.6188L31.4939 35.5126C31.3064 35.8438 30.9064 35.9813 30.5501 35.8501C29.8126 35.5751 29.1376 35.1813 28.5439 34.6876C28.2564 34.4501 28.1814 34.0313 28.3689 33.7063L28.8814 32.8126C28.4501 32.3126 28.1126 31.7313 27.8876 31.1001H26.8564C26.4814 31.1001 26.1564 30.8313 26.0939 30.4563C25.9689 29.7063 25.9626 28.9188 26.0939 28.1376C26.1564 27.7626 26.4814 27.4876 26.8564 27.4876H27.8876C28.1126 26.8563 28.4501 26.2751 28.8814 25.7751L28.3689 24.8813C28.1814 24.5563 28.2501 24.1376 28.5439 23.9001C29.1376 23.4063 29.8189 23.0126 30.5501 22.7376C30.9064 22.6063 31.3064 22.7438 31.4939 23.0751L32.0064 23.9688C32.6626 23.8501 33.3314 23.8501 33.9876 23.9688L34.5001 23.0751C34.6876 22.7438 35.0876 22.6063 35.4439 22.7376C36.1814 23.0126 36.8564 23.4063 37.4501 23.9001C37.7376 24.1376 37.8126 24.5563 37.6251 24.8813L37.1126 25.7751C37.5439 26.2751 37.8814 26.8563 38.1064 27.4876H39.1376C39.5126 27.4876 39.8376 27.7563 39.9001 28.1313C40.0251 28.8813 40.0314 29.6688 39.9001 30.4501C39.8376 30.8251 39.5126 31.1001 39.1376 31.1001H38.1064C37.8814 31.7313 37.5439 32.3126 37.1126 32.8126L37.6251 33.7063C37.8126 34.0313 37.7439 34.4501 37.4501 34.6876C36.8564 35.1813 36.1751 35.5751 35.4439 35.8501C35.0876 35.9813 34.6876 35.8438 34.5001 35.5126L33.9876 34.6188C33.3376 34.7376 32.6626 34.7376 32.0064 34.6188ZM31.3501 30.9376C33.7564 32.7876 36.5001 30.0438 34.6501 27.6376C32.2439 25.7876 29.5001 28.5313 31.3501 30.9376Z" fill="#4F5BE7"></path></g><defs><clipPath id="clip0"><rect width="40" height="40" fill="white"></rect></clipPath></defs></svg>