<svg xmlns="http://www.w3.org/2000/svg" width="40" height="40" viewBox="0 0 40 40" fill="none"><g clip-path="url(#clip0)"><path d="M35.7039 26.9078C33.7469 28.4961 31.5922 29.8125 29.2555 30.7398L33.5039 38.0984L37.7188 39.8984C38.4852 40.2258 39.3508 39.7258 39.4508 38.8984L39.9992 34.3477L35.7039 26.9078ZM39.0234 19.5203C39.4031 18.9211 39.1711 18.1148 38.5508 17.7711L36.3578 16.5547C35.7734 16.2305 35.0602 16.4406 34.6969 17.0016C31.4852 21.9648 25.957 25 20 25C18.1305 25 16.3102 24.668 14.5773 24.0992L19.8398 14.9836C19.8945 14.9852 19.9445 15 19.9992 15C20.0539 15 20.1047 14.9852 20.1586 14.9836L24.15 21.8977C26.5898 21.1977 28.8031 19.8859 30.6039 18.0758L26.5578 11.0672C27.1398 10.0023 27.5 8.79922 27.5 7.5C27.5 3.35781 24.1422 0 20 0C15.8578 0 12.5 3.35781 12.5 7.5C12.5 8.79922 12.8602 10.0023 13.4414 11.0672L8.10547 20.3102C7.125 19.4031 6.23359 18.3891 5.47422 17.2633C5.1 16.7086 4.38281 16.5117 3.80391 16.8469L1.63594 18.1023C1.02266 18.457 0.805469 19.2664 1.19531 19.8578C2.41172 21.7047 3.90547 23.3117 5.56875 24.7031L0 34.3484L0.548438 38.8992C0.648438 39.7266 1.51406 40.2266 2.28047 39.8992L6.49531 38.0992L12.0266 28.5188C14.5414 29.475 17.2359 30 20 30C27.7383 30 34.9125 26.0148 39.0234 19.5203ZM20 5C21.3805 5 22.5 6.11953 22.5 7.5C22.5 8.88047 21.3805 10 20 10C18.6195 10 17.5 8.88047 17.5 7.5C17.5 6.11953 18.6195 5 20 5Z" fill="#4F5BE7"></path></g><defs><clipPath id="clip0"><rect width="40" height="40" fill="white"></rect></clipPath></defs></svg>